<svg width="18" height="18" viewBox="0 0 18 18" fill="none" xmlns="http://www.w3.org/2000/svg">
<path d="M8.8812 4.32539C6.36144 4.32539 4.32899 6.35784 4.32899 8.87761C4.32899 11.3974 6.36144 13.4298 8.8812 13.4298C11.401 13.4298 13.4334 11.3974 13.4334 8.87761C13.4334 6.35785 11.401 4.32539 8.8812 4.32539ZM8.8812 11.8371C7.25287 11.8371 5.92167 10.5099 5.92167 8.87761C5.92167 7.24531 7.2489 5.91807 8.8812 5.91807C10.5135 5.91807 11.8407 7.24531 11.8407 8.87761C11.8407 10.5099 10.5095 11.8371 8.8812 11.8371ZM14.6814 4.13919C14.6814 4.72951 14.206 5.20097 13.6196 5.20097C13.0293 5.20097 12.5578 4.72554 12.5578 4.13919C12.5578 3.55283 13.0333 3.0774 13.6196 3.0774C14.206 3.0774 14.6814 3.55283 14.6814 4.13919ZM17.6964 5.21682C17.6291 3.7945 17.3042 2.53462 16.2622 1.4966C15.2242 0.458589 13.9643 0.133714 12.542 0.0624C11.0761 -0.0208 6.68235 -0.0208 5.21645 0.0624C3.7981 0.129752 2.53822 0.454627 1.49624 1.49264C0.454261 2.53066 0.133348 3.79054 0.0620336 5.21286C-0.0211661 6.67876 -0.0211661 11.0725 0.0620336 12.5384C0.129386 13.9607 0.454261 15.2206 1.49624 16.2586C2.53822 17.2966 3.79414 17.6215 5.21645 17.6928C6.68235 17.776 11.0761 17.776 12.542 17.6928C13.9643 17.6255 15.2242 17.3006 16.2622 16.2586C17.3002 15.2206 17.6251 13.9607 17.6964 12.5384C17.7796 11.0725 17.7796 6.68272 17.6964 5.21682ZM15.8026 14.1113C15.4936 14.8878 14.8954 15.486 14.1149 15.799C12.9461 16.2626 10.1728 16.1556 8.8812 16.1556C7.58963 16.1556 4.81234 16.2586 3.64755 15.799C2.87101 15.49 2.27277 14.8918 1.95978 14.1113C1.49624 12.9425 1.60321 10.1692 1.60321 8.87761C1.60321 7.58603 1.5002 4.80875 1.95978 3.64395C2.26881 2.86742 2.86705 2.26917 3.64755 1.95618C4.8163 1.49264 7.58963 1.59961 8.8812 1.59961C10.1728 1.59961 12.9501 1.4966 14.1149 1.95618C14.8914 2.26521 15.4896 2.86346 15.8026 3.64395C16.2662 4.81271 16.1592 7.58603 16.1592 8.87761C16.1592 10.1692 16.2662 12.9465 15.8026 14.1113Z" fill="white"/>
</svg>
