<svg width="41" height="41" viewBox="0 0 41 41" fill="none" xmlns="http://www.w3.org/2000/svg">
<path d="M12.4782 1.78271H30.3043C36.2019 1.78271 41 6.58076 41 12.4784V30.3045C41 36.2021 36.2019 41.0001 30.3043 41.0001H12.4782C6.58064 41.0001 1.78259 36.2021 1.78259 30.3045V12.4784C1.78259 6.58076 6.58064 1.78271 12.4782 1.78271ZM30.3043 37.4349C34.2361 37.4349 37.4348 34.2362 37.4348 30.3045V12.4784C37.4348 8.54663 34.2361 5.34793 30.3043 5.34793H12.4782C8.54651 5.34793 5.34781 8.54663 5.34781 12.4784V30.3045C5.34781 34.2362 8.54651 37.4349 12.4782 37.4349H30.3043Z" fill="#0C1536"/>
<path d="M21.4658 12.4009C21.9021 12.4009 22.3429 12.4334 22.7758 12.4976C24.6814 12.7802 26.4086 13.6496 27.7708 15.0118C29.1331 16.374 30.0024 18.1013 30.285 20.0069C30.8502 23.8184 28.9175 27.5433 25.4756 29.2757C24.2385 29.8984 22.8535 30.2275 21.4705 30.2275C19.0885 30.2275 16.8495 29.3003 15.1659 27.6167C12.4412 24.892 11.7745 20.7489 13.5069 17.307C14.2536 15.8237 15.3963 14.5813 16.8117 13.7144C18.2145 12.8551 19.8239 12.4009 21.4658 12.4009ZM21.4705 26.6623C22.2997 26.6623 23.1303 26.4648 23.8727 26.0911C25.9378 25.0517 27.0975 22.8168 26.7584 20.5298C26.4103 18.1829 24.5997 16.3723 22.2528 16.0243C21.9925 15.9857 21.7277 15.9661 21.4658 15.9661C19.4349 15.9661 17.6055 17.0941 16.6915 18.9099C15.6521 20.975 16.0521 23.4609 17.6869 25.0957C18.6971 26.1059 20.0408 26.6623 21.4705 26.6623Z" fill="#0C1536"/>
</svg>
