<svg width="123" height="81" viewBox="0 0 123 81" fill="none" xmlns="http://www.w3.org/2000/svg">
<path d="M43.5534 0.669327C35.7469 1.03816 26.9416 2.34438 22.3929 3.80428C19.5038 4.72627 16.5533 6.10939 14.4788 7.50777C13.6951 8.03029 12.5886 9.01375 12.5886 9.19814C12.5886 9.24422 31.7668 9.30574 55.2018 9.30574C78.6213 9.32112 97.7381 9.29036 97.6458 9.25966C97.5075 9.19814 89.6088 7.56923 82.0482 6.04787C71.4141 3.89644 61.2564 2.02168 56.0777 1.25331C52.8045 0.761551 52.0976 0.71547 48.5478 0.669327C46.3964 0.638626 44.1528 0.654007 43.5534 0.669327Z" fill="#0C1536"/>
<path d="M58.06 11.9643C57.7066 12.1026 57.5683 12.3485 57.0919 13.8391C55.9855 17.2352 54.5102 19.7862 52.3434 22.0452C48.1636 26.3941 43.9837 27.7464 32.1817 28.5609C28.9546 28.7913 13.0189 28.8374 6.64151 28.653L2.46165 28.5301L2.21577 29.0065C1.78549 29.8517 1.37058 31.8033 1.26301 33.463L1.1708 35.0765L1.72402 35.7373C2.56921 36.7515 2.67678 37.2125 2.67678 40.1477C2.67678 41.5768 2.63068 42.9445 2.56921 43.1596C2.47701 43.4516 2.2465 43.6514 1.67792 43.8819L0.894196 44.2046L0.9403 46.8631C0.986397 49.5217 0.986397 49.537 1.49352 50.5512C2.07746 51.7652 2.9073 52.5182 4.1213 53.01L4.98186 53.3635L23.2534 53.4095C33.3189 53.4249 41.6172 53.4249 41.7094 53.3788C41.8477 53.3327 41.8477 53.0714 41.6786 52.3338C41.5711 51.8113 41.4328 50.5051 41.3867 49.4448C41.1715 45.1113 42.2472 41.7151 44.8596 38.488C45.9046 37.1818 46.9496 36.2598 48.5016 35.2455C49.9462 34.3082 50.6838 34.0162 52.4203 33.632C55.1403 33.048 55.0173 33.0634 70.6765 32.0031C75.0254 31.7111 79.0055 31.4345 79.5126 31.4038C80.0197 31.3577 84.3225 31.0657 89.0709 30.7583C93.8194 30.4356 97.6766 30.1436 97.6458 30.1129C97.6151 30.0822 95.018 29.7595 91.8524 29.3753C88.7021 29.0065 83.7693 28.4226 80.8956 28.0844C78.022 27.7464 72.9815 27.1624 69.6776 26.7783C66.389 26.3787 63.669 26.0406 63.6383 26.0099C63.5461 25.933 64.4067 25.8409 70.8301 25.2415C74.088 24.9495 80.788 24.3195 85.7363 23.8585C90.6845 23.3975 95.31 22.9672 96.0323 22.9211C98.0761 22.752 98.0607 22.6291 95.9247 22.4294C94.849 22.3217 88.3948 21.6456 81.5871 20.9233C74.7795 20.2011 67.9872 19.4942 66.4966 19.3405C64.9906 19.2023 63.7151 19.0332 63.6537 18.9717C63.6076 18.9102 63.669 18.8641 63.8073 18.8641C63.9456 18.8641 66.2507 18.6183 68.94 18.3263C78.4522 17.2967 94.1421 15.6217 95.9093 15.4526C97.6305 15.2836 98.2451 15.0223 96.9082 15.0223C96.5547 15.0223 93.9423 14.8226 91.1148 14.5614C82.6628 13.8084 73.8575 13.04 68.1409 12.5636C65.1904 12.3024 62.0862 12.0258 61.241 11.949C59.4277 11.7645 58.5979 11.7645 58.06 11.9643Z" fill="#0C1536"/>
<path d="M52.8045 36.2291C51.1602 36.7977 50.4379 37.1511 49.2239 38.0117C45.9507 40.3321 44.3218 44.2507 44.3372 49.7522C44.3525 51.9497 44.5984 53.3942 45.167 54.516C45.336 54.8387 45.4743 55.1614 45.4743 55.2075C45.4743 55.2536 43.9837 55.2843 42.1704 55.2843H38.8665V55.6378C38.8665 56.3293 39.3428 57.8353 39.7885 58.5576C40.0497 58.9725 40.2495 59.3259 40.2495 59.372C40.2495 59.4027 38.2518 59.4335 35.793 59.4335C33.3496 59.4335 31.3366 59.3874 31.3366 59.3413C31.3366 59.2952 31.7515 58.6959 32.2432 58.0043C33.1806 56.7289 33.488 56.1142 33.488 55.5763C33.488 55.2843 33.2421 55.2843 20.7179 55.2843H7.93237L8.03994 55.7761C8.19361 56.5752 9.10027 58.3578 9.7918 59.2183C10.4526 60.0635 11.9739 61.1546 13.4492 61.8461L14.3558 62.2764L64.0686 62.1996L113.781 62.1227L114.842 61.6156C118.499 59.8945 121.096 56.6828 122.095 52.6719C122.325 51.7653 122.387 50.9662 122.387 48.8301C122.372 45.6031 122.187 44.7117 121.05 42.3759C120.358 40.9468 120.113 40.6087 118.791 39.3025C117.147 37.689 116.179 37.0435 114.196 36.2905L112.859 35.7834H83.508L54.1568 35.7681L52.8045 36.2291ZM57.3993 42.6064C58.7055 43.1443 59.8887 44.6042 60.488 46.4175C60.8415 47.4932 60.903 47.9388 60.903 49.4449C60.903 50.9508 60.8261 51.3965 60.488 52.4568C59.8426 54.3777 58.6594 55.8222 57.2609 56.3447C57.0151 56.4369 56.4465 56.5137 55.9855 56.5137C53.2808 56.5137 51.1294 53.4249 51.1294 49.5217C51.1141 46.3714 52.4203 43.7129 54.4641 42.6986C55.2171 42.3145 56.6155 42.2838 57.3993 42.6064ZM113.658 42.7755C115.641 43.759 116.932 46.3867 116.932 49.4449C116.932 53.4557 114.811 56.5137 111.999 56.5137C109.263 56.5137 107.097 53.3788 107.112 49.4449C107.112 44.5427 110.431 41.1619 113.658 42.7755ZM94.6185 54.6082C94.8337 56.1757 95.2639 57.2052 96.232 58.3578L96.939 59.203L79.866 59.2491C70.4767 59.2645 62.7624 59.2491 62.7163 59.2183C62.6856 59.1722 63.1927 58.5268 63.8381 57.7892C65.1904 56.2525 65.6053 55.4688 65.7129 54.1933L65.8051 53.2866H80.1273H94.4495L94.6185 54.6082Z" fill="#0C1536"/>
<path d="M18.3206 63.9054C15.1549 64.4279 12.604 66.7637 11.9893 69.6988C11.7434 70.8667 11.7741 73.2025 12.0508 74.2628C12.604 76.3681 14.1253 78.2737 16.0616 79.2879C17.7366 80.1792 18.1054 80.2253 24.0064 80.2714L29.3388 80.3021V78.873V77.4285L23.9296 77.3824C18.6586 77.3363 18.4896 77.3209 17.752 76.9828C16.5226 76.4142 15.7235 75.6766 15.1703 74.5241C14.7093 73.5867 14.6632 73.3869 14.6632 72.0346C14.6632 70.7899 14.7247 70.4518 15.0781 69.7141C15.5698 68.6538 16.4611 67.7318 17.5368 67.1632L18.3513 66.7329L23.8527 66.6868L29.3388 66.6407V65.1962V63.7363L24.2369 63.7517C21.4247 63.7671 18.7662 63.8285 18.3206 63.9054Z" fill="#0C1536"/>
<path d="M41.3713 64.1204C41.0332 64.3355 40.5107 64.8733 40.2188 65.3036C39.2968 66.702 31.3365 80.01 31.3365 80.1329C31.3365 80.1944 32.151 80.2251 33.1345 80.2098L34.9478 80.1483L38.6206 74.0936C40.649 70.759 42.3241 68.039 42.3394 68.039C42.3856 68.039 45.167 72.6491 45.167 72.726C45.167 72.7721 44.1835 72.8182 42.9849 72.8335L40.8027 72.8796L39.9883 74.1858L39.1891 75.4921L43.0617 75.5689L46.9342 75.6457L48.2097 77.7203C48.9166 78.8575 49.5466 79.8871 49.6081 80.01C49.7157 80.1791 50.1767 80.2405 51.5444 80.2712C53.0811 80.302 53.327 80.2712 53.2501 80.0715C53.1579 79.8563 48.9473 72.6184 45.7663 67.2399C44.1374 64.4892 43.5995 63.9206 42.6006 63.7977C42.155 63.7362 41.863 63.813 41.3713 64.1204Z" fill="#0C1536"/>
<path d="M54.541 72.0346V80.3482L55.924 80.3175L57.3071 80.2714V73.4637V66.6561H62.6241C65.9434 66.6561 68.1716 66.7175 68.5865 66.8251C69.6008 67.071 70.323 67.7471 70.5996 68.6999C71.0607 70.252 70.4613 71.6658 69.0322 72.3573C68.3099 72.7107 68.187 72.7261 63.7305 72.7722L59.1511 72.8183V74.2013V75.569H62.1785H65.2211L67.5569 77.9048L69.9081 80.256L71.9827 80.2714C73.1199 80.2867 74.0573 80.2867 74.0573 80.2714C74.0573 80.2406 72.9815 79.1649 71.6753 77.8587C70.3691 76.5679 69.2934 75.4615 69.2934 75.4154C69.2934 75.3692 69.7698 75.108 70.3538 74.8468C71.66 74.2321 72.7203 73.2178 73.2581 72.0653C73.627 71.297 73.6731 71.005 73.6731 69.6527C73.6731 68.3157 73.6116 68.0084 73.2581 67.24C72.5667 65.7648 71.3219 64.7659 69.2934 64.1051C68.5404 63.8593 67.6953 63.8285 61.5023 63.767L54.541 63.7209V72.0346Z" fill="#0C1536"/>
<path d="M83.2161 63.9054C78.944 64.6123 76.2547 68.0699 76.5775 72.4649C76.8387 76.0915 78.9902 78.8883 82.2787 79.9026C83.3083 80.2253 83.631 80.2407 89.3322 80.256H95.3254V75.7227L95.3408 71.1894L90.0083 71.1587L84.6606 71.1433V72.4341V73.725H88.5792H92.4978V75.5844V77.4285L87.9338 77.3824L83.3544 77.3363L82.4938 76.9367C81.3259 76.3835 80.45 75.5537 79.9429 74.5241C79.5587 73.7404 79.5126 73.4945 79.5126 72.0346C79.5126 70.6362 79.5587 70.3135 79.8968 69.6527C80.3732 68.6692 81.4488 67.5935 82.4324 67.1171C83.2007 66.7329 83.2161 66.7329 88.7021 66.6868L94.1883 66.6407V65.1962V63.7363L89.0863 63.7517C86.2741 63.7671 83.631 63.8285 83.2161 63.9054Z" fill="#0C1536"/>
<path d="M104.561 63.8439C101.288 64.2741 98.5525 66.6714 97.8764 69.668C97.6305 70.7437 97.6765 73.1717 97.9532 74.2474C98.5218 76.4142 100.151 78.4427 102.087 79.3954C103.654 80.1638 104.976 80.3328 108.895 80.2714C111.768 80.2253 112.383 80.1638 113.259 79.8872C115.902 79.042 117.961 76.8137 118.637 74.0323C119.083 72.1882 118.806 69.4529 117.992 67.8701C117.592 67.071 116.563 65.9031 115.718 65.2884C113.981 64.0283 112.537 63.7363 108.172 63.767C106.436 63.767 104.822 63.8131 104.561 63.8439ZM113.105 67.1632C114.135 67.6549 115.134 68.6999 115.595 69.6988C116.086 70.7898 116.148 72.9105 115.718 74.0477C115.257 75.2617 114.365 76.2144 113.121 76.8291L112.091 77.3362H108.249H104.407L103.378 76.8291C102.256 76.2759 101.488 75.5075 100.919 74.355C100.642 73.7711 100.581 73.3869 100.566 72.1114C100.566 70.7745 100.612 70.4671 100.965 69.7295C101.472 68.6384 102.041 67.9776 102.901 67.4705C104.254 66.6868 104.454 66.6561 108.48 66.7022L112.245 66.7329L113.105 67.1632Z" fill="#0C1536"/>
</svg>
