<svg width="24" height="18" viewBox="0 0 24 18" fill="none" xmlns="http://www.w3.org/2000/svg">
<path d="M23.1906 3.15702C22.9182 2.13134 22.1156 1.32354 21.0966 1.04941C19.2495 0.55127 11.8429 0.55127 11.8429 0.55127C11.8429 0.55127 4.43629 0.55127 2.58915 1.04941C1.5701 1.32359 0.767514 2.13134 0.495112 3.15702C0.000183105 5.01613 0.000183105 8.89498 0.000183105 8.89498C0.000183105 8.89498 0.000183105 12.7738 0.495112 14.6329C0.767514 15.6586 1.5701 16.4328 2.58915 16.7069C4.43629 17.205 11.8429 17.205 11.8429 17.205C11.8429 17.205 19.2495 17.205 21.0966 16.7069C22.1156 16.4328 22.9182 15.6586 23.1906 14.6329C23.6856 12.7738 23.6856 8.89498 23.6856 8.89498C23.6856 8.89498 23.6856 5.01613 23.1906 3.15702ZM9.42049 12.4167V5.37327L15.611 8.89507L9.42049 12.4167Z" fill="white"/>
</svg>
